<svg xmlns="http://www.w3.org/2000/svg" width="600" height="600" fill="none" viewBox="0 0 600 600"><path fill="#fff" d="M334.099 104.513c75.137-16.072 147.863 24.51 161.525 90.807 14.063 66.297-35.761 132.595-110.898 148.667-6.027 1.205-12.054 2.009-17.679 2.813 9.643 4.821 19.689 11.652 28.93 20.089 38.573 33.752 53.038 79.96 32.948 103.264-20.493 22.902-68.307 14.063-106.478-19.688-38.573-33.752-53.038-79.96-32.948-103.264 3.214-3.616 7.232-6.429 11.652-8.438-29.331-10.446-53.44-30.134-67.503-56.252-.402 13.26-1.205 27.323-2.812 41.386-9.644 97.236-44.6 173.578-77.95 169.962-33.349-3.214-52.234-84.78-42.189-182.418 10.045-97.236 45.001-173.176 77.949-169.962 16.474 1.607 29.332 22.501 36.966 54.645 14.465-43.797 55.048-80.36 108.487-91.611m78.753 71.12c-16.875-32.948-41.787-54.245-55.85-47.012-13.662 7.232-11.25 39.779 5.626 72.726 16.875 32.948 41.787 54.244 55.85 47.011 13.661-7.233 11.25-39.778-5.626-72.725m-50.518-36.481c5.195-2.588 14.398 5.033 20.633 16.823 6.234 11.791 7.124 23.438 2.078 26.026-5.196 2.588-14.399-5.033-20.633-16.823-6.234-11.791-7.125-23.437-2.078-26.026"/></svg>